<mxfile host="65bd71144e">
    <diagram id="XRcFvfuoU3c9YxJEkGbC" name="ページ1">
        <mxGraphModel dx="1756" dy="419" grid="1" gridSize="10" guides="1" tooltips="1" connect="1" arrows="1" fold="1" page="1" pageScale="1" pageWidth="850" pageHeight="1100" math="0" shadow="0">
            <root>
                <mxCell id="0"/>
                <mxCell id="1" parent="0"/>
                <mxCell id="4" value="" style="shape=umlLifeline;perimeter=lifelinePerimeter;whiteSpace=wrap;html=1;container=1;dropTarget=0;collapsible=0;recursiveResize=0;outlineConnect=0;portConstraint=eastwest;newEdgeStyle={&quot;curved&quot;:0,&quot;rounded&quot;:0};participant=umlActor;" parent="1" vertex="1">
                    <mxGeometry x="40" y="40" width="20" height="940" as="geometry"/>
                </mxCell>
                <mxCell id="14" value="" style="html=1;points=[[0,0,0,0,5],[0,1,0,0,-5],[1,0,0,0,5],[1,1,0,0,-5]];perimeter=orthogonalPerimeter;outlineConnect=0;targetShapes=umlLifeline;portConstraint=eastwest;newEdgeStyle={&quot;curved&quot;:0,&quot;rounded&quot;:0};" parent="1" vertex="1">
                    <mxGeometry x="165" y="150" width="10" height="210" as="geometry"/>
                </mxCell>
                <mxCell id="15" value="deleteConfirm&lt;div&gt;(product Id)&lt;/div&gt;" style="html=1;verticalAlign=bottom;endArrow=block;curved=0;rounded=0;entryX=0;entryY=0;entryDx=0;entryDy=5;" parent="1" source="4" target="14" edge="1">
                    <mxGeometry relative="1" as="geometry">
                        <mxPoint x="190" y="175" as="sourcePoint"/>
                    </mxGeometry>
                </mxCell>
                <mxCell id="16" value="BP007　&lt;div&gt;商品削除(確認)画面&lt;/div&gt;" style="html=1;verticalAlign=bottom;endArrow=open;dashed=1;endSize=8;curved=0;rounded=0;exitX=0;exitY=1;exitDx=0;exitDy=-5;" parent="1" source="14" target="4" edge="1">
                    <mxGeometry relative="1" as="geometry">
                        <mxPoint x="180" y="245" as="targetPoint"/>
                        <mxPoint as="offset"/>
                    </mxGeometry>
                </mxCell>
                <mxCell id="17" value="" style="html=1;points=[[0,0,0,0,5],[0,1,0,0,-5],[1,0,0,0,5],[1,1,0,0,-5]];perimeter=orthogonalPerimeter;outlineConnect=0;targetShapes=umlLifeline;portConstraint=eastwest;newEdgeStyle={&quot;curved&quot;:0,&quot;rounded&quot;:0};" parent="1" vertex="1">
                    <mxGeometry x="330" y="150" width="10" height="150" as="geometry"/>
                </mxCell>
                <mxCell id="18" value="getProduct(Integer Id)" style="html=1;verticalAlign=bottom;endArrow=block;curved=0;rounded=0;entryX=0;entryY=0;entryDx=0;entryDy=5;exitX=1;exitY=0;exitDx=0;exitDy=5;exitPerimeter=0;" parent="1" source="14" target="17" edge="1">
                    <mxGeometry relative="1" as="geometry">
                        <mxPoint x="260" y="155" as="sourcePoint"/>
                        <Array as="points">
                            <mxPoint x="250" y="155"/>
                        </Array>
                    </mxGeometry>
                </mxCell>
                <mxCell id="19" value="Product" style="html=1;verticalAlign=bottom;endArrow=open;dashed=1;endSize=8;curved=0;rounded=0;exitX=0;exitY=1;exitDx=0;exitDy=-5;" parent="1" source="17" target="14" edge="1">
                    <mxGeometry x="-0.0046" relative="1" as="geometry">
                        <mxPoint x="260" y="225" as="targetPoint"/>
                        <mxPoint as="offset"/>
                    </mxGeometry>
                </mxCell>
                <mxCell id="21" value="" style="html=1;points=[[0,0,0,0,5],[0,1,0,0,-5],[1,0,0,0,5],[1,1,0,0,-5]];perimeter=orthogonalPerimeter;outlineConnect=0;targetShapes=umlLifeline;portConstraint=eastwest;newEdgeStyle={&quot;curved&quot;:0,&quot;rounded&quot;:0};" parent="1" vertex="1">
                    <mxGeometry x="510" y="160" width="10" height="100" as="geometry"/>
                </mxCell>
                <mxCell id="22" value="selectById(Integer Id)" style="html=1;verticalAlign=bottom;endArrow=block;curved=0;rounded=0;entryX=0;entryY=0;entryDx=0;entryDy=5;" parent="1" source="17" target="21" edge="1">
                    <mxGeometry relative="1" as="geometry">
                        <mxPoint x="440" y="165" as="sourcePoint"/>
                    </mxGeometry>
                </mxCell>
                <mxCell id="23" value="Product" style="html=1;verticalAlign=bottom;endArrow=open;dashed=1;endSize=8;curved=0;rounded=0;exitX=0;exitY=1;exitDx=0;exitDy=-5;" parent="1" source="21" target="17" edge="1">
                    <mxGeometry relative="1" as="geometry">
                        <mxPoint x="440" y="235" as="targetPoint"/>
                    </mxGeometry>
                </mxCell>
                <mxCell id="24" value="" style="html=1;points=[[0,0,0,0,5],[0,1,0,0,-5],[1,0,0,0,5],[1,1,0,0,-5]];perimeter=orthogonalPerimeter;outlineConnect=0;targetShapes=umlLifeline;portConstraint=eastwest;newEdgeStyle={&quot;curved&quot;:0,&quot;rounded&quot;:0};" parent="1" vertex="1">
                    <mxGeometry x="670" y="170" width="10" height="70" as="geometry"/>
                </mxCell>
                <mxCell id="25" value="" style="html=1;verticalAlign=bottom;endArrow=block;curved=0;rounded=0;entryX=0;entryY=0;entryDx=0;entryDy=5;" parent="1" source="21" target="24" edge="1">
                    <mxGeometry relative="1" as="geometry">
                        <mxPoint x="600" y="175" as="sourcePoint"/>
                    </mxGeometry>
                </mxCell>
                <mxCell id="27" value="SQL(SELECT PRODUCT&lt;div&gt;&amp;nbsp;WHERE ID =&quot; &quot; )&lt;/div&gt;" style="edgeLabel;html=1;align=center;verticalAlign=middle;resizable=0;points=[];" parent="25" vertex="1" connectable="0">
                    <mxGeometry x="0.0667" y="8" relative="1" as="geometry">
                        <mxPoint y="-7" as="offset"/>
                    </mxGeometry>
                </mxCell>
                <mxCell id="26" value="Product" style="html=1;verticalAlign=bottom;endArrow=open;dashed=1;endSize=8;curved=0;rounded=0;exitX=0;exitY=1;exitDx=0;exitDy=-5;" parent="1" source="24" target="21" edge="1">
                    <mxGeometry relative="1" as="geometry">
                        <mxPoint x="600" y="245" as="targetPoint"/>
                    </mxGeometry>
                </mxCell>
                <mxCell id="32" value="完了ボタン押し削除処理" style="endArrow=open;endSize=12;dashed=1;html=1;" parent="1" edge="1">
                    <mxGeometry width="160" relative="1" as="geometry">
                        <mxPoint y="420" as="sourcePoint"/>
                        <mxPoint x="760" y="420" as="targetPoint"/>
                    </mxGeometry>
                </mxCell>
                <mxCell id="33" value="IDで削除対象を取得" style="endArrow=open;endSize=12;dashed=1;html=1;" parent="1" edge="1">
                    <mxGeometry width="160" relative="1" as="geometry">
                        <mxPoint x="25" y="110" as="sourcePoint"/>
                        <mxPoint x="720" y="110" as="targetPoint"/>
                        <Array as="points">
                            <mxPoint x="115" y="110"/>
                        </Array>
                    </mxGeometry>
                </mxCell>
                <mxCell id="36" value="&lt;span style=&quot;color: rgb(0, 0, 0);&quot;&gt;DeleteProduct&lt;/span&gt;&lt;div&gt;Controller&lt;/div&gt;" style="shape=umlLifeline;perimeter=lifelinePerimeter;whiteSpace=wrap;html=1;container=1;dropTarget=0;collapsible=0;recursiveResize=0;outlineConnect=0;portConstraint=eastwest;newEdgeStyle={&quot;curved&quot;:0,&quot;rounded&quot;:0};" parent="1" vertex="1">
                    <mxGeometry x="120" y="40" width="100" height="940" as="geometry"/>
                </mxCell>
                <mxCell id="46" value="" style="html=1;points=[[0,0,0,0,5],[0,1,0,0,-5],[1,0,0,0,5],[1,1,0,0,-5]];perimeter=orthogonalPerimeter;outlineConnect=0;targetShapes=umlLifeline;portConstraint=eastwest;newEdgeStyle={&quot;curved&quot;:0,&quot;rounded&quot;:0};" parent="36" vertex="1">
                    <mxGeometry x="45" y="470" width="10" height="210" as="geometry"/>
                </mxCell>
                <mxCell id="58" value="" style="html=1;points=[[0,0,0,0,5],[0,1,0,0,-5],[1,0,0,0,5],[1,1,0,0,-5]];perimeter=orthogonalPerimeter;outlineConnect=0;targetShapes=umlLifeline;portConstraint=eastwest;newEdgeStyle={&quot;curved&quot;:0,&quot;rounded&quot;:0};" parent="36" vertex="1">
                    <mxGeometry x="45" y="790" width="10" height="100" as="geometry"/>
                </mxCell>
                <mxCell id="70" value="&lt;span style=&quot;color: rgb(0, 0, 0); font-size: 12px; text-align: center; background-color: rgb(251, 251, 251);&quot;&gt;model&lt;/span&gt;&lt;div style=&quot;font-size: 12px; text-align: center; background-color: rgb(251, 251, 251);&quot;&gt;にセットしname取得&lt;/div&gt;" style="html=1;align=left;spacingLeft=2;endArrow=block;rounded=0;edgeStyle=orthogonalEdgeStyle;curved=0;rounded=0;" edge="1" parent="36">
                    <mxGeometry x="-0.06" y="5" relative="1" as="geometry">
                        <mxPoint x="55" y="800" as="sourcePoint"/>
                        <Array as="points">
                            <mxPoint x="85" y="800"/>
                            <mxPoint x="85" y="830"/>
                        </Array>
                        <mxPoint x="60" y="830.0588235294117" as="targetPoint"/>
                        <mxPoint as="offset"/>
                    </mxGeometry>
                </mxCell>
                <mxCell id="37" value="&lt;span style=&quot;color: rgb(0, 0, 0);&quot;&gt;DeleteProduct&lt;/span&gt;&lt;div&gt;Service&lt;/div&gt;" style="shape=umlLifeline;perimeter=lifelinePerimeter;whiteSpace=wrap;html=1;container=1;dropTarget=0;collapsible=0;recursiveResize=0;outlineConnect=0;portConstraint=eastwest;newEdgeStyle={&quot;curved&quot;:0,&quot;rounded&quot;:0};" parent="1" vertex="1">
                    <mxGeometry x="285" y="40" width="100" height="940" as="geometry"/>
                </mxCell>
                <mxCell id="49" value="" style="html=1;points=[[0,0,0,0,5],[0,1,0,0,-5],[1,0,0,0,5],[1,1,0,0,-5]];perimeter=orthogonalPerimeter;outlineConnect=0;targetShapes=umlLifeline;portConstraint=eastwest;newEdgeStyle={&quot;curved&quot;:0,&quot;rounded&quot;:0};" parent="37" vertex="1">
                    <mxGeometry x="45" y="480" width="10" height="160" as="geometry"/>
                </mxCell>
                <mxCell id="39" value="&lt;span style=&quot;color: rgb(0, 0, 0);&quot;&gt;DeleteProduct&lt;/span&gt;&lt;div&gt;Repository&lt;/div&gt;" style="shape=umlLifeline;perimeter=lifelinePerimeter;whiteSpace=wrap;html=1;container=1;dropTarget=0;collapsible=0;recursiveResize=0;outlineConnect=0;portConstraint=eastwest;newEdgeStyle={&quot;curved&quot;:0,&quot;rounded&quot;:0};" parent="1" vertex="1">
                    <mxGeometry x="465" y="40" width="100" height="930" as="geometry"/>
                </mxCell>
                <mxCell id="52" value="" style="html=1;points=[[0,0,0,0,5],[0,1,0,0,-5],[1,0,0,0,5],[1,1,0,0,-5]];perimeter=orthogonalPerimeter;outlineConnect=0;targetShapes=umlLifeline;portConstraint=eastwest;newEdgeStyle={&quot;curved&quot;:0,&quot;rounded&quot;:0};" parent="39" vertex="1">
                    <mxGeometry x="45" y="490" width="10" height="120" as="geometry"/>
                </mxCell>
                <mxCell id="45" value="DB" style="shape=umlLifeline;perimeter=lifelinePerimeter;whiteSpace=wrap;html=1;container=1;dropTarget=0;collapsible=0;recursiveResize=0;outlineConnect=0;portConstraint=eastwest;newEdgeStyle={&quot;curved&quot;:0,&quot;rounded&quot;:0};" parent="1" vertex="1">
                    <mxGeometry x="625" y="40" width="100" height="930" as="geometry"/>
                </mxCell>
                <mxCell id="55" value="" style="html=1;points=[[0,0,0,0,5],[0,1,0,0,-5],[1,0,0,0,5],[1,1,0,0,-5]];perimeter=orthogonalPerimeter;outlineConnect=0;targetShapes=umlLifeline;portConstraint=eastwest;newEdgeStyle={&quot;curved&quot;:0,&quot;rounded&quot;:0};" parent="45" vertex="1">
                    <mxGeometry x="45" y="510" width="10" height="80" as="geometry"/>
                </mxCell>
                <mxCell id="47" value="deleteProduct&lt;div&gt;(product)&lt;/div&gt;" style="html=1;verticalAlign=bottom;endArrow=block;curved=0;rounded=0;entryX=0;entryY=0;entryDx=0;entryDy=5;" parent="1" source="4" target="46" edge="1">
                    <mxGeometry relative="1" as="geometry">
                        <mxPoint x="95" y="515" as="sourcePoint"/>
                    </mxGeometry>
                </mxCell>
                <mxCell id="48" value="void" style="html=1;verticalAlign=bottom;endArrow=open;dashed=1;endSize=8;curved=0;rounded=0;exitX=0;exitY=1;exitDx=0;exitDy=-5;" parent="1" source="46" target="4" edge="1">
                    <mxGeometry relative="1" as="geometry">
                        <mxPoint x="95" y="585" as="targetPoint"/>
                    </mxGeometry>
                </mxCell>
                <mxCell id="50" value="deleteProduct(Integer Id)" style="html=1;verticalAlign=bottom;endArrow=block;curved=0;rounded=0;entryX=0;entryY=0;entryDx=0;entryDy=5;" parent="1" source="36" target="49" edge="1">
                    <mxGeometry relative="1" as="geometry">
                        <mxPoint x="260" y="525" as="sourcePoint"/>
                    </mxGeometry>
                </mxCell>
                <mxCell id="51" value="void" style="html=1;verticalAlign=bottom;endArrow=open;dashed=1;endSize=8;curved=0;rounded=0;exitX=0;exitY=1;exitDx=0;exitDy=-5;" parent="1" source="49" target="36" edge="1">
                    <mxGeometry relative="1" as="geometry">
                        <mxPoint x="260" y="595" as="targetPoint"/>
                    </mxGeometry>
                </mxCell>
                <mxCell id="53" value="deleteById(Integer Id)" style="html=1;verticalAlign=bottom;endArrow=block;curved=0;rounded=0;entryX=0;entryY=0;entryDx=0;entryDy=5;" parent="1" source="37" target="52" edge="1">
                    <mxGeometry relative="1" as="geometry">
                        <mxPoint x="440" y="535" as="sourcePoint"/>
                    </mxGeometry>
                </mxCell>
                <mxCell id="54" value="void" style="html=1;verticalAlign=bottom;endArrow=open;dashed=1;endSize=8;curved=0;rounded=0;exitX=0;exitY=1;exitDx=0;exitDy=-5;" parent="1" source="52" target="37" edge="1">
                    <mxGeometry relative="1" as="geometry">
                        <mxPoint x="440" y="605" as="targetPoint"/>
                    </mxGeometry>
                </mxCell>
                <mxCell id="56" value="論理削除(UPDATE)" style="html=1;verticalAlign=bottom;endArrow=block;curved=0;rounded=0;entryX=0;entryY=0;entryDx=0;entryDy=5;" parent="1" source="39" target="55" edge="1">
                    <mxGeometry relative="1" as="geometry">
                        <mxPoint x="600" y="555" as="sourcePoint"/>
                    </mxGeometry>
                </mxCell>
                <mxCell id="57" value="void" style="html=1;verticalAlign=bottom;endArrow=open;dashed=1;endSize=8;curved=0;rounded=0;exitX=0;exitY=1;exitDx=0;exitDy=-5;" parent="1" source="55" target="39" edge="1">
                    <mxGeometry relative="1" as="geometry">
                        <mxPoint x="600" y="625" as="targetPoint"/>
                    </mxGeometry>
                </mxCell>
                <mxCell id="59" value="deleteComplete&lt;div&gt;(Product&lt;span style=&quot;background-color: light-dark(#ffffff, var(--ge-dark-color, #121212));&quot;&gt;)&lt;/span&gt;&lt;/div&gt;" style="html=1;verticalAlign=bottom;endArrow=block;curved=0;rounded=0;entryX=0;entryY=0;entryDx=0;entryDy=5;" parent="1" source="4" target="58" edge="1">
                    <mxGeometry x="0.0043" relative="1" as="geometry">
                        <mxPoint x="95" y="835" as="sourcePoint"/>
                        <mxPoint as="offset"/>
                    </mxGeometry>
                </mxCell>
                <mxCell id="60" value="BP008&amp;nbsp;&lt;div&gt;商品削除(完了)画面&lt;/div&gt;" style="html=1;verticalAlign=bottom;endArrow=open;dashed=1;endSize=8;curved=0;rounded=0;exitX=0;exitY=1;exitDx=0;exitDy=-5;" parent="1" source="58" target="4" edge="1">
                    <mxGeometry relative="1" as="geometry">
                        <mxPoint x="95" y="905" as="targetPoint"/>
                    </mxGeometry>
                </mxCell>
                <mxCell id="68" value="セッションに&lt;div&gt;Productを登録&lt;/div&gt;" style="html=1;align=left;spacingLeft=2;endArrow=block;rounded=0;edgeStyle=orthogonalEdgeStyle;curved=0;rounded=0;" edge="1" parent="1">
                    <mxGeometry x="0.0585" relative="1" as="geometry">
                        <mxPoint x="174.995714285714" y="320" as="sourcePoint"/>
                        <Array as="points">
                            <mxPoint x="210" y="320"/>
                            <mxPoint x="210" y="350"/>
                        </Array>
                        <mxPoint x="174.995714285714" y="350.0000000000001" as="targetPoint"/>
                        <mxPoint as="offset"/>
                    </mxGeometry>
                </mxCell>
                <mxCell id="71" value="&lt;div style=&quot;text-align: center;&quot;&gt;&lt;span style=&quot;font-size: 12px; background-color: rgb(251, 251, 251);&quot;&gt;セッション解除&lt;/span&gt;&lt;/div&gt;" style="html=1;align=left;spacingLeft=2;endArrow=block;rounded=0;edgeStyle=orthogonalEdgeStyle;curved=0;rounded=0;" edge="1" parent="1">
                    <mxGeometry x="-0.0597" y="5" relative="1" as="geometry">
                        <mxPoint x="175" y="880" as="sourcePoint"/>
                        <Array as="points">
                            <mxPoint x="205" y="880"/>
                            <mxPoint x="205" y="910"/>
                        </Array>
                        <mxPoint x="180" y="910.0588235294117" as="targetPoint"/>
                        <mxPoint as="offset"/>
                    </mxGeometry>
                </mxCell>
            </root>
        </mxGraphModel>
    </diagram>
</mxfile>